<svg width="202" height="203" viewBox="0 0 202 203" fill="none" xmlns="http://www.w3.org/2000/svg">
<path d="M189.286 101.685C196.346 101.685 202.153 107.432 201.26 114.435C198.698 134.52 190.125 153.478 176.52 168.739C160.063 187.198 137.394 198.961 112.827 201.788C88.2598 204.616 63.5108 198.311 43.2913 184.073C23.0719 169.836 8.79402 148.66 3.17587 124.577C-2.44228 100.495 0.991636 75.187 12.8239 53.4722C24.6561 31.7574 44.0604 15.1519 67.3426 6.81693C90.6249 -1.51805 116.159 -1.00042 139.085 8.27127C158.039 15.9369 174.115 29.1438 185.3 46.0224C189.2 51.9075 186.535 59.6303 180.204 62.7543C173.873 65.8783 166.289 63.1927 162.139 57.4813C153.911 46.1587 142.63 37.2838 129.499 31.973C112.39 25.0538 93.3348 24.6675 75.9599 30.8876C58.585 37.1078 44.1041 49.5 35.2741 65.7052C26.444 81.9103 23.8814 100.797 28.074 118.769C32.2667 136.741 42.9219 152.544 58.0111 163.169C73.1003 173.794 91.5698 178.499 109.903 176.389C128.237 174.279 145.155 165.501 157.436 151.725C166.862 141.152 173.051 128.202 175.419 114.407C176.613 107.449 182.226 101.685 189.286 101.685Z" fill="#64CDC3"/>
<path d="M58.9647 103.066C58.9647 100.346 59.6247 97.8855 60.9447 95.6855C62.3047 93.4855 64.1247 91.7255 66.4047 90.4055C68.7247 89.0855 71.2847 88.4255 74.0847 88.4255C77.0847 88.4255 79.7247 89.1455 82.0047 90.5855C84.3247 91.9855 86.1247 94.0255 87.4047 96.7055C88.7247 99.3455 89.3847 102.526 89.3847 106.246C89.3847 112.046 88.7247 116.846 87.4047 120.646C86.0847 124.406 84.2447 127.226 81.8847 129.106C79.5247 130.986 76.7847 131.926 73.6647 131.926C70.8647 131.926 68.3247 131.206 66.0447 129.766C63.8047 128.366 62.1047 126.446 60.9447 124.006L63.5847 121.606C64.4247 123.606 65.7647 125.226 67.6047 126.466C69.4447 127.706 71.4647 128.326 73.6647 128.326C76.0647 128.326 78.1247 127.586 79.8447 126.106C81.6047 124.626 82.9647 122.506 83.9247 119.746C84.9247 116.986 85.4447 113.646 85.4847 109.726C84.9247 111.246 84.0447 112.606 82.8447 113.806C81.6447 114.966 80.2647 115.866 78.7047 116.506C77.1447 117.146 75.4447 117.466 73.6047 117.466C70.9247 117.466 68.4647 116.826 66.2247 115.546C63.9847 114.266 62.2047 112.546 60.8847 110.386C59.6047 108.186 58.9647 105.746 58.9647 103.066ZM74.0247 92.0255C71.9847 92.0255 70.1247 92.5255 68.4447 93.5255C66.7647 94.5255 65.4047 95.8655 64.3647 97.5455C63.3647 99.1855 62.8647 101.026 62.8647 103.066C62.8647 105.066 63.3647 106.906 64.3647 108.586C65.4047 110.266 66.7647 111.606 68.4447 112.606C70.1647 113.606 72.0247 114.106 74.0247 114.106C76.0647 114.106 77.9247 113.606 79.6047 112.606C81.2847 111.606 82.6247 110.266 83.6247 108.586C84.6247 106.906 85.1247 105.066 85.1247 103.066C85.1247 101.066 84.6247 99.2255 83.6247 97.5455C82.6247 95.8655 81.2647 94.5255 79.5447 93.5255C77.8647 92.5255 76.0247 92.0255 74.0247 92.0255ZM94.1209 103.066C94.1209 100.346 94.7809 97.8855 96.1009 95.6855C97.4609 93.4855 99.2809 91.7255 101.561 90.4055C103.881 89.0855 106.441 88.4255 109.241 88.4255C112.241 88.4255 114.881 89.1455 117.161 90.5855C119.481 91.9855 121.281 94.0255 122.561 96.7055C123.881 99.3455 124.541 102.526 124.541 106.246C124.541 112.046 123.881 116.846 122.561 120.646C121.241 124.406 119.401 127.226 117.041 129.106C114.681 130.986 111.941 131.926 108.821 131.926C106.021 131.926 103.481 131.206 101.201 129.766C98.9609 128.366 97.2609 126.446 96.1009 124.006L98.7409 121.606C99.5809 123.606 100.921 125.226 102.761 126.466C104.601 127.706 106.621 128.326 108.821 128.326C111.221 128.326 113.281 127.586 115.001 126.106C116.761 124.626 118.121 122.506 119.081 119.746C120.081 116.986 120.601 113.646 120.641 109.726C120.081 111.246 119.201 112.606 118.001 113.806C116.801 114.966 115.421 115.866 113.861 116.506C112.301 117.146 110.601 117.466 108.761 117.466C106.081 117.466 103.621 116.826 101.381 115.546C99.1409 114.266 97.3609 112.546 96.0409 110.386C94.7609 108.186 94.1209 105.746 94.1209 103.066ZM109.181 92.0255C107.141 92.0255 105.281 92.5255 103.601 93.5255C101.921 94.5255 100.561 95.8655 99.5209 97.5455C98.5209 99.1855 98.0209 101.026 98.0209 103.066C98.0209 105.066 98.5209 106.906 99.5209 108.586C100.561 110.266 101.921 111.606 103.601 112.606C105.321 113.606 107.181 114.106 109.181 114.106C111.221 114.106 113.081 113.606 114.761 112.606C116.441 111.606 117.781 110.266 118.781 108.586C119.781 106.906 120.281 105.066 120.281 103.066C120.281 101.066 119.781 99.2255 118.781 97.5455C117.781 95.8655 116.421 94.5255 114.701 93.5255C113.021 92.5255 111.181 92.0255 109.181 92.0255ZM138.517 96.7055C136.877 96.7055 135.377 96.3255 134.017 95.5655C132.657 94.8055 131.557 93.7655 130.717 92.4455C129.917 91.1255 129.517 89.6855 129.517 88.1255C129.517 86.5255 129.917 85.0655 130.717 83.7455C131.557 82.4255 132.657 81.3855 134.017 80.6255C135.377 79.8655 136.877 79.4855 138.517 79.4855C140.157 79.4855 141.657 79.8655 143.017 80.6255C144.377 81.3855 145.457 82.4255 146.257 83.7455C147.057 85.0655 147.457 86.5055 147.457 88.0655C147.457 89.6655 147.057 91.1255 146.257 92.4455C145.457 93.7655 144.377 94.8055 143.017 95.5655C141.657 96.3255 140.157 96.7055 138.517 96.7055ZM138.517 94.3655C139.597 94.3655 140.577 94.0855 141.457 93.5255C142.377 92.9255 143.097 92.1455 143.617 91.1855C144.137 90.2255 144.397 89.2055 144.397 88.1255C144.397 86.9655 144.117 85.9055 143.557 84.9455C142.997 83.9855 142.257 83.2455 141.337 82.7255C140.457 82.1655 139.517 81.8855 138.517 81.8855C137.397 81.8855 136.397 82.1855 135.517 82.7855C134.637 83.3455 133.917 84.1055 133.357 85.0655C132.837 85.9855 132.577 86.9855 132.577 88.0655C132.577 89.2255 132.837 90.2855 133.357 91.2455C133.917 92.1655 134.637 92.9255 135.517 93.5255C136.437 94.0855 137.437 94.3655 138.517 94.3655ZM158.617 123.286C156.977 123.286 155.477 122.906 154.117 122.146C152.757 121.386 151.677 120.346 150.877 119.026C150.077 117.706 149.677 116.246 149.677 114.646C149.677 113.046 150.077 111.606 150.877 110.326C151.677 109.006 152.757 107.966 154.117 107.206C155.477 106.446 156.977 106.066 158.617 106.066C160.297 106.066 161.817 106.446 163.177 107.206C164.537 107.966 165.617 109.006 166.417 110.326C167.217 111.606 167.617 113.046 167.617 114.646C167.617 116.246 167.217 117.706 166.417 119.026C165.617 120.306 164.537 121.346 163.177 122.146C161.817 122.906 160.297 123.286 158.617 123.286ZM158.617 120.886C159.737 120.886 160.737 120.606 161.617 120.046C162.537 119.446 163.237 118.686 163.717 117.766C164.237 116.806 164.497 115.786 164.497 114.706C164.497 113.546 164.217 112.486 163.657 111.526C163.137 110.566 162.417 109.806 161.497 109.246C160.617 108.686 159.657 108.406 158.617 108.406C157.537 108.406 156.537 108.706 155.617 109.306C154.737 109.866 154.037 110.626 153.517 111.586C152.997 112.546 152.737 113.566 152.737 114.646C152.737 115.806 152.997 116.866 153.517 117.826C154.077 118.746 154.797 119.486 155.677 120.046C156.597 120.606 157.577 120.886 158.617 120.886ZM130.957 121.066L147.757 100.666L164.017 79.8455L166.117 81.6455L149.437 102.046L133.057 122.926L130.957 121.066Z" fill="#64CDC3"/>
</svg>
