<svg width="201" height="203" viewBox="0 0 201 203" fill="none" xmlns="http://www.w3.org/2000/svg">
<path d="M188.937 101.685C195.997 101.685 201.804 107.431 200.911 114.435C198.388 134.219 190.032 152.914 176.768 168.063C160.682 186.435 138.472 198.34 114.267 201.566C90.0627 204.792 65.5102 199.118 45.1746 185.6C24.8389 172.082 10.104 151.64 3.7091 128.074C-2.68575 104.507 -0.305323 79.4202 10.4078 57.4771C21.1209 35.534 39.4378 18.2277 61.953 8.77575C84.4682 -0.676173 109.65 -1.63057 132.816 6.09001C151.918 12.4563 168.578 24.3639 180.756 40.1584C185.067 45.7496 182.961 53.6431 176.869 57.2119C170.778 60.7806 163.021 58.6443 158.473 53.2443C149.603 42.7118 137.951 34.7506 124.732 30.3452C107.444 24.5835 88.6517 25.2958 71.8493 32.3495C55.0469 39.4032 41.3775 52.3184 33.3826 68.6939C25.3877 85.0695 23.6112 103.791 28.3835 121.378C33.1558 138.965 44.1521 154.221 59.328 164.309C74.5039 174.397 92.8268 178.631 110.89 176.224C128.953 173.816 145.528 164.932 157.532 151.221C166.711 140.738 172.74 127.979 175.07 114.407C176.265 107.449 181.877 101.685 188.937 101.685Z" fill="#FD9E50"/>
<path d="M89.0361 110.866C89.0361 113.346 88.3361 115.506 86.9361 117.346C85.5761 119.186 83.7561 120.626 81.4761 121.666C79.2361 122.666 76.7761 123.166 74.0961 123.166C71.2561 123.166 68.7361 122.606 66.5361 121.486C64.3361 120.326 62.5961 118.806 61.3161 116.926C60.0761 115.046 59.4561 112.946 59.4561 110.626C59.4561 108.826 59.8761 107.206 60.7161 105.766C61.5961 104.286 62.6761 103.046 63.9561 102.046C65.2761 101.046 66.6161 100.326 67.9761 99.8855C66.7361 99.3655 65.5761 98.6855 64.4961 97.8455C63.4161 96.9655 62.5561 95.9455 61.9161 94.7855C61.2761 93.6255 60.9561 92.3455 60.9561 90.9455C60.9561 89.1855 61.3361 87.6455 62.0961 86.3255C62.8961 84.9655 63.9361 83.8255 65.2161 82.9055C66.4961 81.9455 67.9161 81.2455 69.4761 80.8055C71.0761 80.3255 72.6761 80.0855 74.2761 80.0855C75.8361 80.0855 77.3961 80.3255 78.9561 80.8055C80.5561 81.2455 81.9961 81.9255 83.2761 82.8455C84.5961 83.7655 85.6361 84.9055 86.3961 86.2655C87.1961 87.5855 87.5961 89.1255 87.5961 90.8855C87.5961 92.2855 87.2561 93.5855 86.5761 94.7855C85.9361 95.9455 85.0761 96.9655 83.9961 97.8455C82.9161 98.6855 81.7361 99.3655 80.4561 99.8855C82.0161 100.406 83.4361 101.206 84.7161 102.286C86.0361 103.326 87.0761 104.566 87.8361 106.006C88.6361 107.446 89.0361 109.066 89.0361 110.866ZM84.8961 110.566C84.8961 109.126 84.5761 107.866 83.9361 106.786C83.3361 105.666 82.4961 104.726 81.4161 103.966C80.3761 103.206 79.2161 102.626 77.9361 102.226C76.6961 101.826 75.4361 101.626 74.1561 101.626C72.4361 101.626 70.7561 102.006 69.1161 102.766C67.5161 103.486 66.1961 104.526 65.1561 105.886C64.1561 107.206 63.6561 108.786 63.6561 110.626C63.6561 112.026 63.9561 113.266 64.5561 114.346C65.1961 115.426 66.0361 116.366 67.0761 117.166C68.1161 117.926 69.2561 118.506 70.4961 118.906C71.7761 119.306 73.0561 119.506 74.3361 119.506C76.0561 119.506 77.7161 119.146 79.3161 118.426C80.9561 117.666 82.2961 116.606 83.3361 115.246C84.3761 113.886 84.8961 112.326 84.8961 110.566ZM65.0361 91.1255C65.0361 92.6455 65.4961 93.9655 66.4161 95.0855C67.3761 96.1655 68.5761 96.9855 70.0161 97.5455C71.4561 98.1055 72.8561 98.3855 74.2161 98.3855C75.6561 98.3855 77.0761 98.1055 78.4761 97.5455C79.9161 96.9455 81.0961 96.1055 82.0161 95.0255C82.9761 93.9055 83.4561 92.5655 83.4561 91.0055C83.4561 89.4855 83.0161 88.1855 82.1361 87.1055C81.2561 86.0255 80.0961 85.2055 78.6561 84.6455C77.2561 84.0855 75.7561 83.8055 74.1561 83.8055C72.6361 83.8055 71.1561 84.1055 69.7161 84.7055C68.3161 85.2655 67.1761 86.1055 66.2961 87.2255C65.4561 88.3055 65.0361 89.6055 65.0361 91.1255ZM125.442 105.106C125.442 108.626 124.782 111.766 123.462 114.526C122.182 117.246 120.402 119.386 118.122 120.946C115.842 122.506 113.262 123.286 110.382 123.286C107.502 123.286 104.922 122.506 102.642 120.946C100.402 119.386 98.6225 117.246 97.3025 114.526C95.9825 111.766 95.3225 108.626 95.3225 105.106C95.3225 101.586 95.9825 98.4655 97.3025 95.7455C98.6225 92.9855 100.402 90.8255 102.642 89.2655C104.922 87.6655 107.502 86.8655 110.382 86.8655C113.262 86.8655 115.842 87.6655 118.122 89.2655C120.402 90.8255 122.182 92.9855 123.462 95.7455C124.782 98.4655 125.442 101.586 125.442 105.106ZM121.302 105.106C121.302 102.266 120.842 99.7655 119.922 97.6055C119.002 95.4455 117.722 93.7655 116.082 92.5655C114.442 91.3255 112.542 90.7055 110.382 90.7055C108.222 90.7055 106.322 91.3255 104.682 92.5655C103.042 93.7655 101.742 95.4455 100.782 97.6055C99.8625 99.7655 99.4025 102.266 99.4025 105.106C99.4025 107.946 99.8625 110.446 100.782 112.606C101.742 114.766 103.042 116.446 104.682 117.646C106.322 118.846 108.222 119.446 110.382 119.446C112.542 119.446 114.442 118.846 116.082 117.646C117.722 116.406 119.002 114.726 119.922 112.606C120.842 110.446 121.302 107.946 121.302 105.106ZM140.161 96.7055C138.521 96.7055 137.021 96.3255 135.661 95.5655C134.301 94.8055 133.201 93.7655 132.361 92.4455C131.561 91.1255 131.161 89.6855 131.161 88.1255C131.161 86.5255 131.561 85.0655 132.361 83.7455C133.201 82.4255 134.301 81.3855 135.661 80.6255C137.021 79.8655 138.521 79.4855 140.161 79.4855C141.801 79.4855 143.301 79.8655 144.661 80.6255C146.021 81.3855 147.101 82.4255 147.901 83.7455C148.701 85.0655 149.101 86.5055 149.101 88.0655C149.101 89.6655 148.701 91.1255 147.901 92.4455C147.101 93.7655 146.021 94.8055 144.661 95.5655C143.301 96.3255 141.801 96.7055 140.161 96.7055ZM140.161 94.3655C141.241 94.3655 142.221 94.0855 143.101 93.5255C144.021 92.9255 144.741 92.1455 145.261 91.1855C145.781 90.2255 146.041 89.2055 146.041 88.1255C146.041 86.9655 145.761 85.9055 145.201 84.9455C144.641 83.9855 143.901 83.2455 142.981 82.7255C142.101 82.1655 141.161 81.8855 140.161 81.8855C139.041 81.8855 138.041 82.1855 137.161 82.7855C136.281 83.3455 135.561 84.1055 135.001 85.0655C134.481 85.9855 134.221 86.9855 134.221 88.0655C134.221 89.2255 134.481 90.2855 135.001 91.2455C135.561 92.1655 136.281 92.9255 137.161 93.5255C138.081 94.0855 139.081 94.3655 140.161 94.3655ZM160.261 123.286C158.621 123.286 157.121 122.906 155.761 122.146C154.401 121.386 153.321 120.346 152.521 119.026C151.721 117.706 151.321 116.246 151.321 114.646C151.321 113.046 151.721 111.606 152.521 110.326C153.321 109.006 154.401 107.966 155.761 107.206C157.121 106.446 158.621 106.066 160.261 106.066C161.941 106.066 163.461 106.446 164.821 107.206C166.181 107.966 167.261 109.006 168.061 110.326C168.861 111.606 169.261 113.046 169.261 114.646C169.261 116.246 168.861 117.706 168.061 119.026C167.261 120.306 166.181 121.346 164.821 122.146C163.461 122.906 161.941 123.286 160.261 123.286ZM160.261 120.886C161.381 120.886 162.381 120.606 163.261 120.046C164.181 119.446 164.881 118.686 165.361 117.766C165.881 116.806 166.141 115.786 166.141 114.706C166.141 113.546 165.861 112.486 165.301 111.526C164.781 110.566 164.061 109.806 163.141 109.246C162.261 108.686 161.301 108.406 160.261 108.406C159.181 108.406 158.181 108.706 157.261 109.306C156.381 109.866 155.681 110.626 155.161 111.586C154.641 112.546 154.381 113.566 154.381 114.646C154.381 115.806 154.641 116.866 155.161 117.826C155.721 118.746 156.441 119.486 157.321 120.046C158.241 120.606 159.221 120.886 160.261 120.886ZM132.601 121.066L149.401 100.666L165.661 79.8455L167.761 81.6455L151.081 102.046L134.701 122.926L132.601 121.066Z" fill="#FD9E50"/>
</svg>
