<svg width="202" height="203" viewBox="0 0 202 203" fill="none" xmlns="http://www.w3.org/2000/svg">
<path d="M189.589 101.685C196.649 101.685 202.456 107.431 201.562 114.435C199.176 133.142 191.572 150.899 179.5 165.609C164.71 183.63 144.13 195.965 121.266 200.513C98.4016 205.061 74.6676 201.54 54.108 190.551C33.5484 179.562 17.4352 161.784 8.51397 140.246C-0.407272 118.708 -1.58459 94.7433 5.18262 72.4348C11.9498 50.1263 26.2428 30.8544 45.6263 17.9027C65.0098 4.95109 88.2844 -0.8789 111.485 1.4061C130.423 3.27139 148.355 10.4501 163.271 21.9913C168.855 26.3118 168.812 34.481 163.82 39.4732C158.828 44.4654 150.783 44.3585 145.018 40.2829C134.432 32.7984 122.025 28.1347 108.979 26.8497C91.665 25.1445 74.2958 29.4952 59.8304 39.1607C45.3651 48.8261 34.6986 63.2082 29.6484 79.8564C24.5983 96.5046 25.4769 114.389 32.1345 130.462C38.7922 146.535 50.817 159.802 66.1601 168.003C81.5032 176.204 99.2152 178.832 116.278 175.438C133.341 172.044 148.7 162.838 159.736 149.39C168.053 139.256 173.528 127.185 175.721 114.407C176.916 107.449 182.529 101.685 189.589 101.685Z" fill="url(#paint0_linear_0_1)"/>
<path d="M59.2674 103.066C59.2674 100.346 59.9274 97.8855 61.2474 95.6855C62.6074 93.4855 64.4274 91.7255 66.7074 90.4055C69.0274 89.0855 71.5874 88.4255 74.3874 88.4255C77.3874 88.4255 80.0274 89.1455 82.3074 90.5855C84.6274 91.9855 86.4274 94.0255 87.7074 96.7055C89.0274 99.3455 89.6874 102.526 89.6874 106.246C89.6874 112.046 89.0274 116.846 87.7074 120.646C86.3874 124.406 84.5474 127.226 82.1874 129.106C79.8274 130.986 77.0874 131.926 73.9674 131.926C71.1674 131.926 68.6274 131.206 66.3474 129.766C64.1074 128.366 62.4074 126.446 61.2474 124.006L63.8874 121.606C64.7274 123.606 66.0674 125.226 67.9074 126.466C69.7474 127.706 71.7674 128.326 73.9674 128.326C76.3674 128.326 78.4274 127.586 80.1474 126.106C81.9074 124.626 83.2674 122.506 84.2274 119.746C85.2274 116.986 85.7474 113.646 85.7874 109.726C85.2274 111.246 84.3474 112.606 83.1474 113.806C81.9474 114.966 80.5674 115.866 79.0074 116.506C77.4474 117.146 75.7474 117.466 73.9074 117.466C71.2274 117.466 68.7674 116.826 66.5274 115.546C64.2874 114.266 62.5074 112.546 61.1874 110.386C59.9074 108.186 59.2674 105.746 59.2674 103.066ZM74.3274 92.0255C72.2874 92.0255 70.4274 92.5255 68.7474 93.5255C67.0674 94.5255 65.7074 95.8655 64.6674 97.5455C63.6674 99.1855 63.1674 101.026 63.1674 103.066C63.1674 105.066 63.6674 106.906 64.6674 108.586C65.7074 110.266 67.0674 111.606 68.7474 112.606C70.4674 113.606 72.3274 114.106 74.3274 114.106C76.3674 114.106 78.2274 113.606 79.9074 112.606C81.5874 111.606 82.9274 110.266 83.9274 108.586C84.9274 106.906 85.4274 105.066 85.4274 103.066C85.4274 101.066 84.9274 99.2255 83.9274 97.5455C82.9274 95.8655 81.5674 94.5255 79.8474 93.5255C78.1674 92.5255 76.3274 92.0255 74.3274 92.0255ZM94.4237 103.066C94.4237 100.346 95.0837 97.8855 96.4037 95.6855C97.7637 93.4855 99.5837 91.7255 101.864 90.4055C104.184 89.0855 106.744 88.4255 109.544 88.4255C112.544 88.4255 115.184 89.1455 117.464 90.5855C119.784 91.9855 121.584 94.0255 122.864 96.7055C124.184 99.3455 124.844 102.526 124.844 106.246C124.844 112.046 124.184 116.846 122.864 120.646C121.544 124.406 119.704 127.226 117.344 129.106C114.984 130.986 112.244 131.926 109.124 131.926C106.324 131.926 103.784 131.206 101.504 129.766C99.2637 128.366 97.5637 126.446 96.4037 124.006L99.0437 121.606C99.8837 123.606 101.224 125.226 103.064 126.466C104.904 127.706 106.924 128.326 109.124 128.326C111.524 128.326 113.584 127.586 115.304 126.106C117.064 124.626 118.424 122.506 119.384 119.746C120.384 116.986 120.904 113.646 120.944 109.726C120.384 111.246 119.504 112.606 118.304 113.806C117.104 114.966 115.724 115.866 114.164 116.506C112.604 117.146 110.904 117.466 109.064 117.466C106.384 117.466 103.924 116.826 101.684 115.546C99.4437 114.266 97.6637 112.546 96.3437 110.386C95.0637 108.186 94.4237 105.746 94.4237 103.066ZM109.484 92.0255C107.444 92.0255 105.584 92.5255 103.904 93.5255C102.224 94.5255 100.864 95.8655 99.8237 97.5455C98.8237 99.1855 98.3237 101.026 98.3237 103.066C98.3237 105.066 98.8237 106.906 99.8237 108.586C100.864 110.266 102.224 111.606 103.904 112.606C105.624 113.606 107.484 114.106 109.484 114.106C111.524 114.106 113.384 113.606 115.064 112.606C116.744 111.606 118.084 110.266 119.084 108.586C120.084 106.906 120.584 105.066 120.584 103.066C120.584 101.066 120.084 99.2255 119.084 97.5455C118.084 95.8655 116.724 94.5255 115.004 93.5255C113.324 92.5255 111.484 92.0255 109.484 92.0255ZM138.82 96.7055C137.18 96.7055 135.68 96.3255 134.32 95.5655C132.96 94.8055 131.86 93.7655 131.02 92.4455C130.22 91.1255 129.82 89.6855 129.82 88.1255C129.82 86.5255 130.22 85.0655 131.02 83.7455C131.86 82.4255 132.96 81.3855 134.32 80.6255C135.68 79.8655 137.18 79.4855 138.82 79.4855C140.46 79.4855 141.96 79.8655 143.32 80.6255C144.68 81.3855 145.76 82.4255 146.56 83.7455C147.36 85.0655 147.76 86.5055 147.76 88.0655C147.76 89.6655 147.36 91.1255 146.56 92.4455C145.76 93.7655 144.68 94.8055 143.32 95.5655C141.96 96.3255 140.46 96.7055 138.82 96.7055ZM138.82 94.3655C139.9 94.3655 140.88 94.0855 141.76 93.5255C142.68 92.9255 143.4 92.1455 143.92 91.1855C144.44 90.2255 144.7 89.2055 144.7 88.1255C144.7 86.9655 144.42 85.9055 143.86 84.9455C143.3 83.9855 142.56 83.2455 141.64 82.7255C140.76 82.1655 139.82 81.8855 138.82 81.8855C137.7 81.8855 136.7 82.1855 135.82 82.7855C134.94 83.3455 134.22 84.1055 133.66 85.0655C133.14 85.9855 132.88 86.9855 132.88 88.0655C132.88 89.2255 133.14 90.2855 133.66 91.2455C134.22 92.1655 134.94 92.9255 135.82 93.5255C136.74 94.0855 137.74 94.3655 138.82 94.3655ZM158.92 123.286C157.28 123.286 155.78 122.906 154.42 122.146C153.06 121.386 151.98 120.346 151.18 119.026C150.38 117.706 149.98 116.246 149.98 114.646C149.98 113.046 150.38 111.606 151.18 110.326C151.98 109.006 153.06 107.966 154.42 107.206C155.78 106.446 157.28 106.066 158.92 106.066C160.6 106.066 162.12 106.446 163.48 107.206C164.84 107.966 165.92 109.006 166.72 110.326C167.52 111.606 167.92 113.046 167.92 114.646C167.92 116.246 167.52 117.706 166.72 119.026C165.92 120.306 164.84 121.346 163.48 122.146C162.12 122.906 160.6 123.286 158.92 123.286ZM158.92 120.886C160.04 120.886 161.04 120.606 161.92 120.046C162.84 119.446 163.54 118.686 164.02 117.766C164.54 116.806 164.8 115.786 164.8 114.706C164.8 113.546 164.52 112.486 163.96 111.526C163.44 110.566 162.72 109.806 161.8 109.246C160.92 108.686 159.96 108.406 158.92 108.406C157.84 108.406 156.84 108.706 155.92 109.306C155.04 109.866 154.34 110.626 153.82 111.586C153.3 112.546 153.04 113.566 153.04 114.646C153.04 115.806 153.3 116.866 153.82 117.826C154.38 118.746 155.1 119.486 155.98 120.046C156.9 120.606 157.88 120.886 158.92 120.886ZM131.26 121.066L148.06 100.666L164.32 79.8455L166.42 81.6455L149.74 102.046L133.36 122.926L131.26 121.066Z" fill="#4EA6F5"/>
<defs>
<linearGradient id="paint0_linear_0_1" x1="101.608" y1="0.920898" x2="101.608" y2="466.784" gradientUnits="userSpaceOnUse">
<stop stop-color="#4EA6F5"/>
<stop offset="1" stop-color="#5155DA"/>
</linearGradient>
</defs>
</svg>
